<?xml version="1.0" encoding="utf-8"?>
<!-- Generator: Adobe Illustrator 16.0.0, SVG Export Plug-In . SVG Version: 6.00 Build 0)  -->
<!DOCTYPE svg PUBLIC "-//W3C//DTD SVG 1.1//EN" "http://www.w3.org/Graphics/SVG/1.1/DTD/svg11.dtd">
<svg version="1.1" id="Capa_1" xmlns="http://www.w3.org/2000/svg" xmlns:xlink="http://www.w3.org/1999/xlink" x="0px" y="0px"
	 width="841.891px" height="595.279px" viewBox="0 0 841.891 595.279" enable-background="new 0 0 841.891 595.279"
	 xml:space="preserve">
<path fill="#FF0004" d="M229.37,499.704l-89.068-165.949c-3.07-5.721-3.742-12.425-1.869-18.64l54.362-180.326
	c1.874-6.214,6.14-11.43,11.859-14.5l165.95-89.069c5.719-3.07,12.424-3.742,18.639-1.868l180.324,54.363
	c6.215,1.873,11.432,6.139,14.502,11.859l89.068,165.949c3.07,5.72,3.742,12.424,1.869,18.64l-54.363,180.324
	c-1.873,6.215-6.141,11.432-11.859,14.501l-165.949,89.07c-5.719,3.069-12.424,3.741-18.639,1.868L243.87,511.563
	C237.656,509.689,232.438,505.424,229.37,499.704"/>
<path fill="#FF0004" d="M241.042,486.406l-83.209-155.028c-2.867-5.344-3.494-11.607-1.744-17.412l50.785-168.458
	c1.75-5.806,5.735-10.679,11.078-13.547L372.98,48.754c5.343-2.868,11.606-3.495,17.413-1.745L558.85,97.794
	c5.807,1.75,10.68,5.735,13.547,11.078l83.207,155.029c2.867,5.343,3.496,11.606,1.746,17.412l-50.785,168.458
	c-1.75,5.806-5.736,10.679-11.078,13.546l-155.029,83.208c-5.344,2.867-11.605,3.495-17.412,1.745l-168.459-50.785
	C248.781,495.734,243.909,491.75,241.042,486.406"/>
<path fill="#FFFFFF" d="M652.212,260.929l-79.213-147.587c-3.977-7.407-10.598-12.823-18.648-15.25L393.979,49.744
	c-7.909-2.382-16.698-1.5-23.971,2.403L222.423,131.36c-7.407,3.976-12.823,10.598-15.252,18.648l-48.346,160.371
	c-2.428,8.05-1.574,16.563,2.402,23.97l79.212,147.586c3.976,7.408,10.599,12.824,18.649,15.252l160.371,48.348
	c2.949,0.888,6.006,1.34,9.086,1.34c5.176,0,10.322-1.294,14.885-3.742l147.586-79.213c7.408-3.977,12.822-10.598,15.25-18.648
	l48.348-160.373C657.04,276.849,656.186,268.336,652.212,260.929 M641.21,280.859L592.862,441.23
	c-1.348,4.47-4.354,8.146-8.467,10.354l-147.586,79.213c-4.039,2.168-8.918,2.658-13.309,1.333L263.13,483.783
	c-4.471-1.349-8.147-4.355-10.354-8.469l-79.213-147.588c-2.207-4.11-2.681-8.837-1.333-13.306l48.346-160.372
	c1.024-3.396,3.012-6.33,5.709-8.514l226.799-63.35l97.227,29.311c4.469,1.347,8.146,4.354,10.354,8.467l79.213,147.586
	C642.083,271.662,642.557,276.389,641.21,280.859"/>
<path fill="#FFFFFF" d="M262.59,238.47c-0.254,0.84-0.546,1.365-0.876,1.571c-0.331,0.206-1.092,0.13-2.284-0.231l-14.935-4.506
	c-1.613-0.486-2.207-1.43-1.784-2.832l19.487-64.582c0.571-1.894,1.484-3.396,2.74-4.51c1.252-1.113,3.316-1.236,6.191-0.369
	l26.716,8.062c4.136,1.248,7.62,2.949,10.453,5.105c2.829,2.154,5.009,4.629,6.538,7.422c1.527,2.797,2.418,5.799,2.673,9.014
	c0.253,3.215-0.125,6.502-1.14,9.867c-0.34,1.123-0.868,2.494-1.586,4.113c-0.719,1.62-1.688,3.24-2.902,4.862
	c-1.217,1.623-2.737,3.173-4.559,4.647c-1.824,1.479-4.026,2.631-6.609,3.457c-2.584,0.828-5.607,1.218-9.073,1.164
	c-3.466-0.05-7.405-0.742-11.823-2.076l-10.309-3.11L262.59,238.47z M295.446,197.661c0.211-0.7,0.354-1.557,0.431-2.566
	c0.075-1.011-0.035-1.979-0.327-2.912c-0.293-0.928-0.848-1.822-1.658-2.68c-0.814-0.857-1.992-1.52-3.531-1.984l-11.361-3.428
	l-4.793,15.883l11.361,3.428c2.452,0.74,4.56,0.477,6.318-0.791C293.645,201.347,294.831,199.696,295.446,197.661"/>
<path fill="#FFFFFF" d="M386.374,237.839c-1.777,5.889-4.006,10.994-6.686,15.311c-2.68,4.317-5.869,7.717-9.561,10.197
	c-3.695,2.481-7.945,3.953-12.752,4.414c-4.807,0.462-10.19-0.206-16.149-2.004c-5.679-1.715-10.347-4.061-14.001-7.037
	c-3.652-2.977-6.32-6.498-8.001-10.562s-2.46-8.641-2.339-13.73c0.117-5.089,1.068-10.579,2.846-16.47
	c1.736-5.748,4.03-10.757,6.885-15.021s6.17-7.645,9.945-10.139c3.773-2.494,8-4.014,12.678-4.553
	c4.676-0.539,9.75,0.016,15.219,1.666c5.681,1.715,10.336,4.095,13.97,7.143c3.631,3.047,6.335,6.637,8.11,10.768
	c1.774,4.132,2.625,8.73,2.551,13.795C389.013,226.682,388.108,232.089,386.374,237.839 M365.411,231.627
	c0.756-2.756,1.313-5.437,1.682-8.042c0.365-2.604,0.365-4.957,0.006-7.057c-0.363-2.097-1.186-3.933-2.469-5.506
	c-1.287-1.574-3.155-2.731-5.608-3.472c-2.036-0.614-3.981-0.628-5.841-0.042c-1.861,0.586-3.553,1.625-5.072,3.117
	c-1.521,1.492-2.889,3.357-4.097,5.592c-1.212,2.236-2.207,4.652-2.991,7.246c-0.973,3.227-1.641,6.199-2.002,8.92
	c-0.363,2.723-0.324,5.124,0.12,7.209c0.44,2.084,1.319,3.861,2.638,5.328c1.316,1.471,3.164,2.562,5.551,3.282
	c2.313,0.698,4.404,0.737,6.276,0.116c1.87-0.621,3.542-1.724,5.015-3.307c1.471-1.583,2.771-3.543,3.897-5.882
	C363.64,236.793,364.606,234.293,365.411,231.627"/>
<path fill="#FFFFFF" d="M419.237,244.542l-11.363,37.654c-0.254,0.843-0.551,1.384-0.891,1.625c-0.343,0.24-1.107,0.182-2.301-0.178
	l-14.936-4.507c-1.613-0.487-2.195-1.467-1.75-2.94l19.043-63.106c0.994-3.295,2.203-5.341,3.629-6.135
	c1.426-0.793,3.611-0.746,6.555,0.143l5.471,1.65c1.051,0.317,1.945,0.645,2.688,0.983c0.738,0.336,1.393,0.764,1.967,1.281
	c0.568,0.516,1.076,1.186,1.516,2.008c0.441,0.82,0.887,1.873,1.342,3.158l8.248,27.049l4.332,15.307l0.736,0.223l11.426-37.865
	c0.254-0.842,0.551-1.384,0.893-1.625c0.34-0.242,1.105-0.183,2.299,0.178l14.936,4.508c1.613,0.486,2.197,1.466,1.754,2.938
	l-19.045,63.109c-0.719,2.384-1.809,4.216-3.266,5.498c-1.459,1.281-3.764,1.445-6.92,0.494l-5.471-1.651
	c-0.982-0.297-1.859-0.619-2.633-0.967c-0.775-0.349-1.449-0.782-2.02-1.298c-0.572-0.518-1.094-1.191-1.568-2.023
	c-0.477-0.832-0.906-1.879-1.289-3.143l-8.166-26.563l-4.479-15.581L419.237,244.542z"/>
<path fill="#FFFFFF" d="M478.218,303.883c-2.258-1.98-3.846-4.161-4.762-6.544c-0.918-2.381-1.297-4.847-1.135-7.398
	c0.16-2.553,0.592-4.986,1.291-7.301l15.447-51.57c0.443-1.473,1.469-1.967,3.072-1.482l14.961,4.514
	c1.186,0.359,1.854,0.732,2.002,1.121c0.148,0.39,0.098,1.006-0.156,1.847l-14.76,48.91c-0.402,1.333-0.562,2.431-0.479,3.298
	c0.082,0.868,0.346,1.578,0.791,2.132c0.443,0.556,1.035,1.001,1.775,1.339s1.564,0.645,2.479,0.92l24.926,7.522
	c0.842,0.254,1.383,0.552,1.627,0.892c0.24,0.342,0.182,1.108-0.18,2.299l-3.586,11.887c-0.486,1.612-1.467,2.195-2.939,1.752
	l-30.711-9.269C483.694,307.488,480.473,305.865,478.218,303.883"/>
<path fill="#FFFFFF" d="M581.175,336.903l-32.502-9.808c-4.207-1.269-7.445-2.896-9.715-4.882s-3.869-4.169-4.793-6.553
	c-0.928-2.384-1.311-4.853-1.15-7.404c0.156-2.554,0.586-4.989,1.285-7.302l10.156-33.658c0.762-2.525,1.857-4.891,3.289-7.098
	c1.43-2.209,3.217-4.002,5.355-5.385c2.137-1.381,4.672-2.242,7.605-2.582c2.934-0.338,6.258,0.053,9.975,1.174l31.027,9.363
	c0.842,0.254,1.348,0.541,1.521,0.859c0.17,0.32,0.074,1.076-0.285,2.269l-3.586,11.884c-0.275,0.914-0.602,1.483-0.977,1.715
	c-0.375,0.23-0.949,0.229-1.719-0.002l-25.033-7.555c-1.404-0.424-2.584-0.568-3.541-0.438c-0.959,0.132-1.732,0.414-2.322,0.849
	s-1.061,0.981-1.412,1.638c-0.354,0.66-0.635,1.342-0.846,2.041l-1.332,4.418l28.188,8.508c0.842,0.254,1.342,0.558,1.504,0.912
	c0.16,0.354,0.061,1.127-0.299,2.319l-3.301,10.939c-0.486,1.612-1.396,2.217-2.729,1.815l-28.188-8.507l-2.381,7.89
	c-0.402,1.332-0.562,2.433-0.479,3.298c0.082,0.868,0.346,1.579,0.791,2.133c0.443,0.554,1.035,1.001,1.775,1.338
	c0.74,0.339,1.564,0.645,2.477,0.92l26.717,8.062c0.84,0.255,1.346,0.541,1.52,0.861c0.17,0.32,0.076,1.075-0.285,2.268
	l-3.584,11.886C583.415,336.701,582.505,337.305,581.175,336.903"/>
<path fill="#FFFFFF" d="M233.188,334.566c-0.33,0.207-1.092,0.131-2.283-0.229l-14.936-4.507c-1.613-0.488-2.207-1.432-1.783-2.834
	l15.553-51.539c0.762-2.524,1.857-4.892,3.289-7.099c1.43-2.207,3.216-4,5.354-5.385c2.139-1.38,4.674-2.24,7.607-2.581
	c2.933-0.338,6.258,0.052,9.974,1.175l31.976,9.648c0.842,0.254,1.348,0.54,1.521,0.859c0.168,0.322,0.076,1.076-0.284,2.268
	l-3.586,11.885c-0.275,0.912-0.602,1.484-0.977,1.715c-0.377,0.23-0.948,0.229-1.721-0.004l-25.978-7.839
	c-1.405-0.424-2.584-0.567-3.542-0.437c-0.958,0.132-1.732,0.414-2.322,0.848c-0.59,0.436-1.061,0.982-1.412,1.639
	c-0.354,0.66-0.635,1.342-0.845,2.041l-1.968,6.521l27.662,8.348c0.842,0.254,1.341,0.56,1.504,0.912
	c0.158,0.356,0.061,1.129-0.299,2.321l-3.301,10.938c-0.488,1.614-1.397,2.219-2.729,1.815l-27.662-8.347l-7.936,26.296
	C233.811,333.836,233.518,334.361,233.188,334.566"/>
<path fill="#FFFFFF" d="M337.645,363.563c-0.008,0.534-0.148,1.123-0.418,1.769c-0.271,0.645-1.038,0.776-2.299,0.396l-14.516-4.379
	c-1.123-0.34-2.008-0.702-2.656-1.089c-0.649-0.387-0.936-1.333-0.863-2.843l1.094-18.835c0.137-3.247-0.182-5.735-0.962-7.463
	s-2.501-2.992-5.165-3.797l-8.205-2.475l-8.062,26.715c-0.255,0.841-0.546,1.367-0.875,1.572c-0.332,0.207-1.093,0.13-2.284-0.23
	l-14.936-4.507c-1.613-0.487-2.207-1.43-1.783-2.834l19.488-64.58c0.655-2.173,1.59-3.747,2.801-4.721
	c1.211-0.972,3.254-1.026,6.13-0.158l26.821,8.095c8.272,2.495,13.938,6.289,16.992,11.381c3.053,5.093,3.566,11.002,1.533,17.733
	c-1.143,3.787-3.057,6.901-5.744,9.341c-2.688,2.442-5.762,3.942-9.221,4.505l-0.064,0.21c2.115,1.863,3.406,4.052,3.875,6.562
	c0.463,2.512,0.601,5.23,0.406,8.157L337.645,363.563z M328.497,308.701c0.443-1.473,0.381-2.982-0.184-4.529
	c-0.564-1.55-2.005-2.671-4.318-3.369l-11.992-3.62l-3.65,12.097l11.993,3.618c1.682,0.508,3.308,0.445,4.877-0.191
	C326.79,312.071,327.882,310.736,328.497,308.701"/>
<path fill="#FFFFFF" d="M399.509,385.215l-32.502-9.808c-4.207-1.269-7.445-2.896-9.715-4.882c-2.27-1.986-3.869-4.169-4.793-6.554
	c-0.927-2.384-1.31-4.852-1.15-7.404c0.156-2.554,0.586-4.988,1.285-7.302l10.156-33.657c0.762-2.525,1.858-4.891,3.289-7.098
	c1.43-2.209,3.215-4.003,5.355-5.386c2.137-1.381,4.673-2.242,7.607-2.581c2.932-0.339,6.256,0.053,9.973,1.174l31.029,9.363
	c0.84,0.254,1.346,0.54,1.52,0.86c0.17,0.321,0.076,1.076-0.283,2.267l-3.586,11.885c-0.275,0.912-0.604,1.482-0.977,1.715
	c-0.377,0.23-0.949,0.229-1.721-0.003l-25.031-7.555c-1.404-0.424-2.584-0.566-3.543-0.437c-0.959,0.131-1.731,0.415-2.322,0.848
	c-0.59,0.437-1.062,0.982-1.411,1.639c-0.354,0.66-0.636,1.342-0.847,2.041l-1.332,4.418l28.189,8.507
	c0.84,0.254,1.34,0.559,1.502,0.913c0.16,0.354,0.061,1.128-0.297,2.318l-3.303,10.94c-0.486,1.612-1.396,2.216-2.727,1.814
	l-28.189-8.507l-2.381,7.889c-0.402,1.334-0.562,2.434-0.479,3.3c0.081,0.866,0.344,1.577,0.791,2.132
	c0.443,0.555,1.036,1.001,1.775,1.338c0.74,0.339,1.564,0.645,2.479,0.92l26.715,8.062c0.842,0.255,1.346,0.541,1.521,0.859
	c0.17,0.322,0.075,1.076-0.285,2.269l-3.585,11.885C401.749,385.013,400.839,385.616,399.509,385.215"/>
<path fill="#FFFFFF" d="M443.405,354.968l-11.361,37.654c-0.254,0.842-0.553,1.383-0.893,1.625
	c-0.342,0.241-1.107,0.182-2.299-0.177l-14.936-4.507c-1.613-0.488-2.197-1.467-1.752-2.939l19.043-63.107
	c0.994-3.297,2.203-5.342,3.629-6.136c1.426-0.793,3.611-0.746,6.557,0.144l5.469,1.649c1.053,0.317,1.947,0.646,2.688,0.982
	c0.74,0.339,1.395,0.766,1.967,1.283c0.57,0.516,1.078,1.185,1.518,2.007s0.887,1.875,1.342,3.159l8.248,27.048l4.332,15.307
	l0.734,0.223l11.428-37.864c0.254-0.842,0.551-1.384,0.891-1.625c0.342-0.243,1.105-0.183,2.299,0.177l14.938,4.508
	c1.611,0.486,2.197,1.466,1.752,2.938l-19.043,63.108c-0.721,2.385-1.809,4.217-3.268,5.498c-1.457,1.28-3.764,1.445-6.918,0.494
	l-5.471-1.65c-0.982-0.297-1.861-0.619-2.635-0.969c-0.775-0.348-1.447-0.779-2.018-1.297c-0.572-0.516-1.096-1.19-1.57-2.022
	c-0.477-0.832-0.906-1.88-1.289-3.144l-8.166-26.562l-4.479-15.581L443.405,354.968z"/>
<path fill="#FFFFFF" d="M567.259,395.556c-1.777,5.892-4.006,10.996-6.686,15.312c-2.68,4.318-5.867,7.716-9.561,10.198
	c-3.693,2.48-7.943,3.953-12.75,4.415c-4.807,0.461-10.189-0.207-16.15-2.005c-5.68-1.715-10.348-4.061-14-7.037
	c-3.654-2.977-6.32-6.497-8.002-10.562c-1.682-4.064-2.461-8.64-2.34-13.73c0.119-5.09,1.07-10.579,2.848-16.471
	c1.734-5.748,4.029-10.756,6.885-15.02c2.854-4.264,6.168-7.645,9.945-10.139c3.773-2.494,8-4.014,12.676-4.553
	c4.678-0.54,9.752,0.017,15.221,1.666c5.68,1.714,10.334,4.095,13.969,7.143c3.631,3.047,6.336,6.636,8.111,10.767
	c1.773,4.132,2.623,8.73,2.551,13.795C569.897,384.401,568.995,389.809,567.259,395.556 M546.298,389.345
	c0.754-2.756,1.314-5.437,1.68-8.042c0.365-2.604,0.367-4.956,0.006-7.056c-0.361-2.097-1.184-3.932-2.467-5.507
	c-1.289-1.574-3.156-2.731-5.609-3.471c-2.035-0.615-3.982-0.628-5.84-0.041c-1.861,0.586-3.553,1.625-5.072,3.116
	c-1.523,1.491-2.889,3.355-4.098,5.593c-1.211,2.235-2.207,4.65-2.99,7.245c-0.973,3.226-1.641,6.199-2.002,8.921
	c-0.363,2.721-0.324,5.123,0.119,7.208c0.441,2.084,1.318,3.86,2.637,5.328c1.316,1.47,3.166,2.562,5.551,3.281
	c2.314,0.699,4.406,0.738,6.277,0.115c1.869-0.62,3.543-1.722,5.014-3.306c1.473-1.582,2.771-3.542,3.898-5.881
	C544.526,394.511,545.493,392.011,546.298,389.345"/>
</svg>
